<svg xmlns="http://www.w3.org/2000/svg" viewBox="0 0 64 64" role="img" aria-labelledby="title">
  <title id="title">YouTube</title>
  <rect width="64" height="64" rx="14" fill="#ff0033"/>
  <path fill="#fff" d="M46.4 25.1c-.3-1.2-1.3-2.2-2.5-2.5C41.7 22 32 22 32 22s-9.7 0-11.9.6c-1.2.3-2.2 1.3-2.5 2.5-.6 2.2-.6 6.9-.6 6.9s0 4.7.6 6.9c.3 1.2 1.3 2.2 2.5 2.5C22.3 42 32 42 32 42s9.7 0 11.9-.6c1.2-.3 2.2-1.3 2.5-2.5.6-2.2.6-6.9.6-6.9s0-4.7-.6-6.9z"/>
  <path fill="#ff0033" d="M29 36.3v-8.6l7.5 4.3z"/>
</svg>
